<svg xmlns="http://www.w3.org/2000/svg" viewBox="0 0 64 64">
  <rect width="64" height="64" rx="12" fill="#111111"/>
  <g fill="none" stroke="#f4f4ef" stroke-width="3" stroke-linejoin="round">
    <path d="M18 18 32 12l14 6-14 6z"/>
    <path d="M18 18v16l14 7V24z"/>
    <path d="M46 18v16l-14 7"/>
  </g>
  <rect x="35" y="23" width="13" height="13" rx="1.5" fill="#f4f4ef"/>
  <g fill="#111111">
    <rect x="37" y="25" width="3" height="3"/>
    <rect x="43" y="25" width="3" height="3"/>
    <rect x="37" y="31" width="3" height="3"/>
    <rect x="41" y="29" width="2" height="2"/>
    <rect x="44" y="31" width="2" height="2"/>
  </g>
  <rect x="15" y="37" width="18" height="15" rx="2" fill="#f4f4ef"/>
  <g stroke="#111111" stroke-width="2" stroke-linecap="round">
    <path d="M19 41h2"/>
    <path d="M24 41h5"/>
    <path d="M19 45h2"/>
    <path d="M24 45h5"/>
    <path d="M19 49h2"/>
    <path d="M24 49h5"/>
  </g>
</svg>